PathFileType	4	(X/Y/Z)	Walk3.trc
DataRate	CameraRate	NumFrames	NumMarkers	Units	OrigDataRate	OrigDataStartFrame	OrigNumFrames
200.000000	200.000000	7	61	mm	200.000000	363	395
Frame#	Times		LFHD		RFHD		CLAV		STRN		LASI		RASI		RACR1		RUA1		RFA1		RWRU		RCAR		LACR1		LUA1		LFA1		LWRU		LCAR		RTH3		RMFC		RTB1		RTB3		RTB4		RMT5		LTH1		LTH3		LTH2		LTH4		LLFC		LTB1		LTB2		LTB4		RTH2		RMT1		RTH4		RMMAL		RLFC		RTH1		RTB2		LBHD		RWRR		LElbow		LWRR		RLMAL		RToe		RCAL		RElbow		LPSI		RBHD		T10		RBack		RPSI		LTB3		LMFC		LLMAL		RElbowM		LElbowM		LCAL		LMT5		LToe		C7		LMT1		LMMAL
			X1	Y1	Z1	X2	Y2	Z2	X3	Y3	Z3	X4	Y4	Z4	X5	Y5	Z5	X6	Y6	Z6	X7	Y7	Z7	X8	Y8	Z8	X9	Y9	Z9	X10	Y10	Z10	X11	Y11	Z11	X12	Y12	Z12	X13	Y13	Z13	X14	Y14	Z14	X15	Y15	Z15	X16	Y16	Z16	X17	Y17	Z17	X18	Y18	Z18	X19	Y19	Z19	X20	Y20	Z20	X21	Y21	Z21	X22	Y22	Z22	X23	Y23	Z23	X24	Y24	Z24	X25	Y25	Z25	X26	Y26	Z26	X27	Y27	Z27	X28	Y28	Z28	X29	Y29	Z29	X30	Y30	Z30	X31	Y31	Z31	X32	Y32	Z32	X33	Y33	Z33	X34	Y34	Z34	X35	Y35	Z35	X36	Y36	Z36	X37	Y37	Z37	X38	Y38	Z38	X39	Y39	Z39	X40	Y40	Z40	X41	Y41	Z41	X42	Y42	Z42	X43	Y43	Z43	X44	Y44	Z44	X45	Y45	Z45	X46	Y46	Z46	X47	Y47	Z47	X48	Y48	Z48	X49	Y49	Z49	X50	Y50	Z50	X51	Y51	Z51	X52	Y52	Z52	X53	Y53	Z53	X54	Y54	Z54	X55	Y55	Z55	X56	Y56	Z56	X57	Y57	Z57	X58	Y58	Z58	X59	Y59	Z59	X60	Y60	Z60	X61	Y61	Z61

363	1.815	1207.8	1602.5	-22.846	1199.6	1603.2	76.645	1167.8	1329.3	24.504	1192.7	1197.7	32.701	1152.3	918.09	-81.372	1145.2	932.55	165.04	1093.1	1367.5	187.2	1079.9	1198.7	244.32	1081.6	910.55	310.5	1125.3	788.95	290.38	1101	728.27	342.28	1093.3	1373.8	-127.82	1084.9	1200.8	-191.11	1137.4	917.19	-243.07	1226.7	830.41	-236.1	1218.7	758.65	-266.13	1199.5	609.77	209.39	1244.1	463.83	58.404	1225.8	359	158.98	1129.5	216.11	143.46	1177.3	286.93	152.49	1099.6	61.633	169.63	1096	746.27	-142.42	1070.4	580.38	-105.86	1136.8	662.16	-99.303	1081.2	661.71	-125.15	1044.2	440.57	-79.17	1062.4	342.21	-5.9939	1031	254.85	-57.658	1039.7	259.16	2.8156	1215.8	714.22	205.59	1142.5	61.13	95.214	1167.2	686.91	224.79	1055.3	154.9	74.866	1246.7	471.44	186.72	1132.4	765.29	241.37	1135.2	312.93	188.5	1067.9	1535.1	-55.979	1062.7	789.98	319.13	1073.3	1042.8	-216.48	1163.2	803.18	-227.42	1026.6	147.05	153.07	1184.9	46.355	135	973.29	141.05	104.74	1056.7	1035.4	277.34	977.28	976.41	-16.355	1059	1543	89.426	981.76	1213.8	26.959	978.61	1301.9	96.17	976.3	969.77	84.444	1022.7	177.11	13.042	1005.7	441.75	49.09	958.4	70.216	-27.157	1036.8	1029.5	200.79	1068.2	1022.3	-141.45	898.58	46.476	12.385	1062.3	24.856	-31.835	1148.6	25.689	27.704	1053.3	1426.5	20.127	1090	30.851	52.146	967.61	92.807	52.944
364	1.82	1215.6	1602.3	-22.52	1207.3	1602.8	76.966	1175.5	1329.1	24.495	1200.4	1197.5	32.57	1159.5	917.58	-81.258	1153.2	932.39	165.18	1100.4	1367.3	187.1	1086.7	1198.6	244.37	1086.4	910.66	311.24	1129	788.52	291.89	1103.6	728.13	343.68	1101.3	1373.7	-127.85	1094	1200.8	-191.47	1151.6	918.56	-243.1	1243.4	834.51	-234.88	1238.1	762.52	-264.77	1209.8	610.84	209.66	1255.5	465.51	58.836	1240.6	360.05	159.37	1149.4	213.95	144.05	1194.6	286.37	153	1125	58.845	170.53	1101.5	746.15	-142.2	1073.8	580.58	-105.75	1141.1	661.47	-99.068	1085.7	661.79	-124.98	1045.7	441	-79.301	1063.6	342.52	-6.1433	1031.8	255.28	-57.768	1040.7	259.57	2.6996	1225.1	715.48	206.41	1167.9	59.868	96.118	1176.4	687.54	225.19	1077.3	150.12	75.626	1258.3	473.03	186.82	1141	765.52	242.05	1151.8	310.89	189.14	1075.8	1534.9	-55.909	1066.2	790.21	320.08	1083.8	1042.8	-217.28	1180.8	805.41	-227.07	1048.9	141.36	153.89	1210.6	46.8	135.8	995.84	133.48	105.53	1062.9	1035.5	277.57	984.75	976.23	-15.72	1066.7	1542.5	89.571	989.42	1213.6	26.855	986.17	1301.6	95.783	984.11	969.6	85.072	1023.3	177.57	12.948	1007.3	442.44	49.064	958.56	70.936	-27.015	1043.5	1029.4	200.99	1078.3	1022.1	-142.35	898.74	47.366	12.651	1062.3	24.879	-31.773	1148.8	25.556	27.653	1061	1426.2	19.918	1090.1	30.844	52.15	967.95	93.483	53.057
365	1.825	1223.3	1602	-22.23	1215	1602.4	77.251	1183.2	1328.7	24.488	1208.1	1197.1	32.458	1166.7	917	-81.172	1161.2	932.08	165.31	1107.7	1366.9	187	1093.5	1198.3	244.43	1091.3	910.69	311.98	1132.8	788.06	293.39	1106.2	727.94	345.05	1109.4	1373.4	-127.88	1103.2	1200.7	-191.82	1165.8	919.96	-243.12	1260	838.72	-233.59	1257.3	766.57	-263.32	1219.9	611.73	209.88	1266.6	467.02	59.246	1255.1	361.03	159.7	1169.3	211.85	144.61	1211.8	285.8	153.46	1150.5	56.277	171.44	1106.9	745.99	-142.02	1077.3	580.77	-105.65	1145.3	660.77	-98.925	1090.1	661.85	-124.86	1047.3	441.43	-79.436	1064.9	342.82	-6.302	1032.6	255.71	-57.89	1041.7	259.98	2.5735	1234.2	716.53	207.22	1193.4	58.854	97.014	1185.6	687.99	225.56	1099.6	145.43	76.412	1269.7	474.41	186.88	1149.5	765.58	242.73	1168.5	308.75	189.79	1083.6	1534.6	-55.873	1069.7	790.37	321.01	1094.2	1042.7	-218.1	1198.2	807.76	-226.72	1071.5	135.72	154.75	1236.4	47.501	136.58	1018.7	125.98	106.38	1069.2	1035.5	277.8	992.18	975.94	-15.011	1074.4	1542	89.668	997.11	1213.3	26.784	993.78	1301.2	95.415	991.91	969.31	85.768	1024.1	178.04	12.841	1009.2	443.11	49.047	958.74	71.678	-26.904	1050.3	1029.1	201.2	1088.4	1021.8	-143.3	898.91	48.289	12.89	1062.3	24.896	-31.713	1148.9	25.424	27.617	1068.7	1425.9	19.704	1090.2	30.83	52.158	968.29	94.168	53.152
366	1.83	1231	1601.7	-21.975	1222.6	1601.9	77.498	1191	1328.3	24.483	1215.8	1196.5	32.371	1173.8	916.34	-81.114	1169.3	931.63	165.43	1115.1	1366.5	186.9	1100.3	1197.9	244.5	1096.2	910.65	312.71	1136.7	787.55	294.88	1109.1	727.71	346.39	1117.6	1373	-127.93	1112.3	1200.5	-192.17	1180	921.41	-243.12	1276.5	843.01	-232.24	1276.3	770.78	-261.79	1229.9	612.43	210.05	1277.3	468.33	59.63	1269.5	361.94	159.97	1189.3	209.82	145.15	1229	285.23	153.88	1176.2	53.965	172.36	1112.2	745.8	-141.89	1080.7	580.94	-105.59	1149.6	660.05	-98.87	1094.6	661.89	-124.79	1049.1	441.84	-79.575	1066.3	343.09	-6.4685	1033.5	256.14	-58.024	1042.8	260.38	2.4371	1243.2	717.36	208.01	1219	58.117	97.892	1194.7	688.26	225.91	1122.1	140.84	77.216	1280.8	475.6	186.91	1158	765.49	243.41	1185.1	306.54	190.45	1091.5	1534.2	-55.868	1073.4	790.47	321.93	1104.7	1042.5	-218.92	1215.6	810.22	-226.38	1094.4	130.18	155.66	1262.2	48.488	137.32	1042	118.56	107.28	1075.4	1035.4	278.04	999.58	975.54	-14.226	1082	1541.3	89.719	1004.8	1212.9	26.745	1001.5	1300.8	95.069	999.7	968.92	86.531	1024.8	178.49	12.718	1011.2	443.77	49.041	958.94	72.44	-26.823	1057.1	1028.7	201.42	1098.5	1021.3	-144.31	899.08	49.244	13.098	1062.4	24.906	-31.655	1149	25.292	27.597	1076.6	1425.4	19.49	1090.3	30.809	52.17	968.65	94.86	53.226
367	1.835	1238.8	1601.3	-21.754	1230.3	1601.3	77.71	1198.8	1327.7	24.479	1223.6	1195.8	32.311	1180.9	915.62	-81.08	1177.4	931.05	165.55	1122.6	1366	186.8	1107.2	1197.5	244.6	1101.2	910.54	313.45	1140.7	787	296.35	1112	727.44	347.69	1125.8	1372.6	-127.98	1121.5	1200.1	-192.51	1194	922.89	-243.11	1292.7	847.38	-230.83	1295.2	775.17	-260.2	1239.6	612.93	210.18	1287.6	469.44	59.987	1283.8	362.8	160.19	1209.4	207.88	145.66	1246.2	284.69	154.26	1202.1	51.946	173.26	1117.5	745.57	-141.8	1084.2	581.09	-105.54	1153.9	659.33	-98.899	1099	661.89	-124.77	1050.9	442.25	-79.713	1067.8	343.34	-6.6414	1034.5	256.57	-58.169	1043.9	260.76	2.2906	1252.2	717.98	208.79	1244.7	57.684	98.744	1203.6	688.36	226.25	1144.7	136.42	78.031	1291.7	476.6	186.91	1166.4	765.23	244.09	1201.8	304.28	191.11	1099.4	1533.6	-55.893	1077.2	790.51	322.83	1115.1	1042.2	-219.75	1232.7	812.78	-226.04	1117.5	124.79	156.61	1288.1	49.788	138.01	1065.5	111.28	108.22	1081.7	1035.2	278.28	1006.9	975.05	-13.364	1089.8	1540.6	89.729	1012.6	1212.5	26.74	1009.2	1300.2	94.749	1007.5	968.42	87.364	1025.6	178.94	12.581	1013.5	444.41	49.049	959.16	73.219	-26.773	1063.9	1028.3	201.64	1108.5	1020.7	-145.36	899.25	50.229	13.274	1062.3	24.907	-31.598	1149	25.163	27.593	1084.4	1424.9	19.279	1090.3	30.785	52.184	969.02	95.559	53.274
368	1.84	1246.5	1600.8	-21.566	1237.9	1600.7	77.889	1206.7	1327	24.478	1231.4	1195	32.282	1187.9	914.84	-81.069	1185.5	930.34	165.67	1130.2	1365.5	186.71	1114.1	1197	244.71	1106.3	910.37	314.19	1144.8	786.41	297.8	1115.1	727.13	348.95	1134	1372	-128.03	1130.7	1199.6	-192.83	1208	924.41	-243.08	1308.7	851.81	-229.36	1313.8	779.7	-258.56	1249.2	613.22	210.25	1297.6	470.34	60.318	1297.8	363.62	160.35	1229.4	206.08	146.15	1263.3	284.2	154.6	1228.1	50.252	174.13	1122.7	745.32	-141.74	1087.8	581.22	-105.51	1158.1	658.61	-99.006	1103.5	661.87	-124.79	1052.9	442.65	-79.849	1069.4	343.56	-6.8183	1035.6	256.99	-58.324	1045.1	261.13	2.1344	1261	718.36	209.55	1270.4	57.581	99.555	1212.5	688.28	226.57	1167.5	132.18	78.85	1302.3	477.4	186.89	1174.8	764.83	244.78	1218.5	302	191.78	1107.3	1532.9	-55.943	1081.1	790.5	323.72	1125.6	1041.8	-220.58	1249.7	815.44	-225.71	1140.9	119.58	157.57	1313.9	51.425	138.65	1089.3	104.18	109.19	1088	1035	278.52	1014.3	974.45	-12.424	1097.5	1539.7	89.702	1020.3	1212	26.767	1017	1299.6	94.459	1015.3	967.81	88.265	1026.4	179.38	12.429	1015.9	445.01	49.073	959.39	74.013	-26.751	1070.8	1027.7	201.86	1118.5	1019.9	-146.46	899.43	51.246	13.417	1062.3	24.902	-31.543	1149.1	25.036	27.604	1092.4	1424.4	19.075	1090.4	30.758	52.198	969.42	96.263	53.297
369	1.845	1254.2	1600.2	-21.408	1245.6	1600.1	78.035	1214.6	1326.3	24.479	1239.2	1194.1	32.285	1194.9	914.01	-81.078	1193.7	929.52	165.78	1137.9	1364.8	186.62	1121	1196.5	244.83	1111.4	910.14	314.94	1149	785.8	299.22	1118.3	726.79	350.17	1142.3	1371.3	-128.08	1139.9	1199	-193.14	1221.9	925.98	-243.02	1324.5	856.3	-227.84	1332.2	784.38	-256.87	1258.5	613.31	210.28	1307.1	471	60.624	1311.7	364.41	160.47	1249.5	204.44	146.6	1280.3	283.77	154.89	1254.2	48.914	174.98	1127.9	745.05	-141.7	1091.4	581.32	-105.5	1162.4	657.88	-99.184	1107.9	661.82	-124.85	1055	443.02	-79.98	1071.2	343.75	-6.9962	1036.7	257.4	-58.488	1046.4	261.47	1.9693	1269.7	718.52	210.3	1296.1	57.831	100.31	1221.2	688.03	226.88	1190.3	128.17	79.663	1312.7	478.01	186.85	1183.2	764.27	245.49	1235.2	299.73	192.44	1115.3	1532.1	-56.016	1085.1	790.43	324.6	1136.1	1041.4	-221.4	1266.5	818.19	-225.38	1164.5	114.61	158.53	1339.8	53.42	139.22	1113.5	97.305	110.18	1094.4	1034.7	278.77	1021.6	973.76	-11.405	1105.2	1538.8	89.641	1028.1	1211.4	26.824	1024.8	1299	94.199	1023.1	967.11	89.234	1027.3	179.81	12.263	1018.5	445.59	49.114	959.63	74.817	-26.755	1077.6	1027.1	202.07	1128.4	1019	-147.59	899.62	52.293	13.528	1062.3	24.891	-31.492	1149.2	24.915	27.628	1100.4	1423.7	18.88	1090.4	30.733	52.209	969.85	96.972	53.291
